<svg xmlns="http://www.w3.org/2000/svg" width="81.185" height="56.492" viewBox="0 0 81.185 56.492">
  <g id="Group_4" data-name="Group 4" transform="translate(-50.001 -65.008)">
    <path id="Icon_awesome-home" data-name="Icon awesome-home" d="M17.207,9.386,5.892,18.705V28.764a.982.982,0,0,0,.982.982l6.877-.018a.982.982,0,0,0,.977-.982V22.872a.982.982,0,0,1,.982-.982h3.928a.982.982,0,0,1,.982.982v5.87a.982.982,0,0,0,.982.985l6.875.019a.982.982,0,0,0,.982-.982V18.7L18.146,9.386A.748.748,0,0,0,17.207,9.386ZM35.081,15.72,29.95,11.491V2.99a.736.736,0,0,0-.736-.736H25.776a.736.736,0,0,0-.736.736V7.446L19.545,2.926a2.946,2.946,0,0,0-3.744,0L.266,15.72a.736.736,0,0,0-.1,1.037l1.565,1.9a.736.736,0,0,0,1.038.1L17.207,6.869a.748.748,0,0,1,.939,0L32.583,18.76a.736.736,0,0,0,1.037-.1l1.565-1.9a.736.736,0,0,0-.1-1.039Z" transform="translate(72.324 62.754)" fill="#820075"/>
    <g id="Group_3" data-name="Group 3" transform="translate(-4.036 -10.5)">
      <g id="Ellipse_1" data-name="Ellipse 1" transform="translate(54.037 103)" fill="#fff" stroke="#820075" stroke-linecap="round" stroke-width="2.2">
        <circle cx="14.5" cy="14.5" r="14.5" stroke="none"/>
        <circle cx="14.5" cy="14.5" r="13.4" fill="none"/>
      </g>
      <path id="Path_1" data-name="Path 1" d="M83.168,118" transform="translate(6.47 -15)" fill="none" stroke="#820075" stroke-linecap="round" stroke-width="2.2"/>
      <line id="Line_1" data-name="Line 1" x2="9.147" y2="4.002" transform="translate(73.439 124.438)" fill="none" stroke="#820075" stroke-linecap="round" stroke-width="2.2"/>
      <path id="Path_2" data-name="Path 2" d="M80.363,118v14.631H95.9V118" transform="translate(5.889 -4.19)" fill="none" stroke="#820075" stroke-linecap="round" stroke-width="2.2"/>
      <g id="Group_1" data-name="Group 1" transform="translate(105.454 113.81)">
        <path id="Path_3" data-name="Path 3" d="M100.594,121.858v14.631" transform="translate(-100.594 -121.858)" fill="none" stroke="#820075" stroke-linecap="round" stroke-width="2.2"/>
        <path id="Path_4" data-name="Path 4" d="M-.183,3.131S1.966-.689,6.069-1.037a33.5,33.5,0,0,1,6.664,0" transform="translate(0.183 1.706)" fill="none" stroke="#820075" stroke-linecap="round" stroke-width="2.2"/>
      </g>
      <g id="Group_2" data-name="Group 2" transform="translate(122.036 103)">
        <path id="Path_5" data-name="Path 5" d="M124.891,143.805v25.44h11.847s.973-7.642-1.988-11.06-9.858-2.611-9.858-2.611Z" transform="translate(-124.891 -143.805)" fill="none" stroke="#820075" stroke-linecap="round" stroke-width="2.2"/>
      </g>
    </g>
  </g>
</svg>
