<svg xmlns="http://www.w3.org/2000/svg" width="75" height="85.294" viewBox="0 0 75 85.294">
  <g id="Group_1" data-name="Group 1" transform="translate(-53 -53.706)">
    <path id="Icon_awesome-home" data-name="Icon awesome-home" d="M35.235,16.858,12.065,35.941v20.6a2.011,2.011,0,0,0,2.011,2.011l14.083-.036a2.011,2.011,0,0,0,2-2.011V44.473a2.011,2.011,0,0,1,2.011-2.011h8.043a2.011,2.011,0,0,1,2.011,2.011V56.492a2.011,2.011,0,0,0,2.011,2.017l14.078.039a2.011,2.011,0,0,0,2.011-2.011V35.927L37.158,16.858A1.532,1.532,0,0,0,35.235,16.858Zm36.6,12.971-10.506-8.66V3.762A1.508,1.508,0,0,0,59.82,2.254H52.783a1.508,1.508,0,0,0-1.508,1.508v9.125L40.023,3.63a6.032,6.032,0,0,0-7.666,0L.546,29.828a1.508,1.508,0,0,0-.2,2.124l3.2,3.9a1.508,1.508,0,0,0,2.125.2l29.56-24.348a1.532,1.532,0,0,1,1.923,0L66.72,36.053a1.508,1.508,0,0,0,2.124-.2l3.2-3.9a1.508,1.508,0,0,0-.214-2.128Z" transform="translate(53.805 51.452)" fill="#820075"/>
    <text id="QURB" transform="translate(53 134)" fill="#820075" font-size="25" font-family="ArialRoundedMTBold, Arial Rounded MT"><tspan x="0" y="0">QURB</tspan></text>
  </g>
</svg>
