<svg xmlns="http://www.w3.org/2000/svg" width="115.883" height="68.056" viewBox="0 0 115.883 68.056">
  <g id="Group_14" data-name="Group 14" transform="translate(-167 -414.944)">
    <g id="Group_1" data-name="Group 1">
      <text id="Qurb_" data-name="Qurb " transform="translate(167 476)" fill="#820075" font-size="35" font-family="ArialRoundedMTBold, Arial Rounded MT"><tspan x="0" y="0">Qurb </tspan></text>
      <path id="Icon_awesome-leaf" data-name="Icon awesome-leaf" d="M25.4.395A.769.769,0,0,0,24.088.346a8.225,8.225,0,0,1-6.972,3.566H13.4c-4.93,0-8.93,3.5-8.93,7.825a7.08,7.08,0,0,0,.07.835A24.5,24.5,0,0,1,17.861,9.128a.7.7,0,0,1,.744.652.7.7,0,0,1-.744.652c-11.692,0-16.65,6.28-17.748,8.64a1.254,1.254,0,0,0,.814,1.7,1.572,1.572,0,0,0,1.944-.705A10.969,10.969,0,0,1,6.215,16.37a9.447,9.447,0,0,0,8.134,3.146A13.04,13.04,0,0,0,26.79,6.288,13.267,13.267,0,0,0,25.4.395Z" transform="translate(246.996 427.132)" fill="#820075"/>
      <path id="Icon_awesome-leaf-2" data-name="Icon awesome-leaf" d="M15.065.23A.46.46,0,0,0,14.285.2a4.9,4.9,0,0,1-4.134,2.082H7.945C5.022,2.284,2.65,4.33,2.65,6.853a4.073,4.073,0,0,0,.041.488,14.7,14.7,0,0,1,7.9-2.011.416.416,0,0,1,.441.381.416.416,0,0,1-.441.381C3.659,6.091.719,9.759.069,11.136a.73.73,0,0,0,.483.99A.939.939,0,0,0,1.7,11.715,6.433,6.433,0,0,1,3.687,9.559,5.645,5.645,0,0,0,8.51,11.4a7.665,7.665,0,0,0,7.377-7.725A7.651,7.651,0,0,0,15.065.23Z" transform="translate(266.996 414.946)" fill="#820075"/>
    </g>
  </g>
</svg>
